<svg xmlns="http://www.w3.org/2000/svg" width="1021.466" height="651.672" viewBox="0 0 1021.466 651.672">
  <g id="Group_205" data-name="Group 205" transform="translate(-193.536 -394.872)">
    <g id="Group_166" data-name="Group 166" transform="translate(663.483 417.847)">
      <g id="Group_10" data-name="Group 10" transform="translate(0 71)">
        <path id="Path_39" data-name="Path 39" d="M2087.68,1615.347c.38,2.488-.01,16.54,0,18.425s.77,3.46-3.67,6.407-50.7,28.793-50.7,28.793-7.339,2.555-12.654,0-45.733-28.534-45.733-28.534a5.821,5.821,0,0,1-1.977-4.455c.249-2.557,0-18.342,0-18.342a4.766,4.766,0,0,1,2.361-3.951c2.456-1.55,50.138-28.113,50.138-28.113a14.921,14.921,0,0,1,14.016,0c7.593,3.931,46.43,26.911,46.43,26.911S2087.3,1612.859,2087.68,1615.347Z" transform="translate(-1972.932 -1581.863)" fill="#cbcbcb" stroke="#707070" stroke-width="2"/>
        <path id="Path_40" data-name="Path 40" d="M1410.91,1618.736c-.158-1.894-2.212-3.232-2.212-3.232l-48.012-27.385a11.138,11.138,0,0,0-4.8-1.422,12.471,12.471,0,0,0-4.089.978l-52.847,30.308s-2.086,1.186-2.086,2.919,2.652,3.151,2.652,3.151l41.852,26.407s4.647,3.267,8,3.289,6.667-2.4,6.667-2.4L1408.7,1622S1411.067,1620.629,1410.91,1618.736Z" transform="translate(-1296.31 -1586.692)" fill="#f0f0f0" stroke="#707070" stroke-width="1"/>
      </g>
    </g>
    <g id="Group_167" data-name="Group 167" transform="translate(669.244 387.847)">
      <g id="Group_10-2" data-name="Group 10" transform="translate(0 71)">
        <path id="Path_39-2" data-name="Path 39" d="M2087.68,1615.347c.38,2.488-.01,16.54,0,18.425s.77,3.46-3.67,6.407-50.7,28.793-50.7,28.793-7.339,2.555-12.654,0-45.733-28.534-45.733-28.534a5.821,5.821,0,0,1-1.977-4.455c.249-2.557,0-18.342,0-18.342a4.766,4.766,0,0,1,2.361-3.951c2.456-1.55,50.138-28.113,50.138-28.113a14.921,14.921,0,0,1,14.016,0c7.593,3.931,46.43,26.911,46.43,26.911S2087.3,1612.859,2087.68,1615.347Z" transform="translate(-1972.932 -1581.863)" fill="#cbcbcb" stroke="#707070" stroke-width="2"/>
        <path id="Path_40-2" data-name="Path 40" d="M1410.91,1618.736c-.158-1.894-2.212-3.232-2.212-3.232l-48.012-27.385a11.138,11.138,0,0,0-4.8-1.422,12.471,12.471,0,0,0-4.089.978l-52.847,30.308s-2.086,1.186-2.086,2.919,2.652,3.151,2.652,3.151l41.852,26.407s4.647,3.267,8,3.289,6.667-2.4,6.667-2.4L1408.7,1622S1411.067,1620.629,1410.91,1618.736Z" transform="translate(-1296.31 -1586.692)" fill="#f0f0f0" stroke="#707070" stroke-width="1"/>
      </g>
    </g>
    <g id="Group_168" data-name="Group 168" transform="translate(663.483 352.639)">
      <g id="Group_10-3" data-name="Group 10" transform="translate(0 71)">
        <path id="Path_39-3" data-name="Path 39" d="M2087.68,1615.347c.38,2.488-.01,16.54,0,18.425s.77,3.46-3.67,6.407-50.7,28.793-50.7,28.793-7.339,2.555-12.654,0-45.733-28.534-45.733-28.534a5.821,5.821,0,0,1-1.977-4.455c.249-2.557,0-18.342,0-18.342a4.766,4.766,0,0,1,2.361-3.951c2.456-1.55,50.138-28.113,50.138-28.113a14.921,14.921,0,0,1,14.016,0c7.593,3.931,46.43,26.911,46.43,26.911S2087.3,1612.859,2087.68,1615.347Z" transform="translate(-1972.932 -1581.863)" fill="#cbcbcb" stroke="#707070" stroke-width="2"/>
        <path id="Path_40-3" data-name="Path 40" d="M1410.91,1618.736c-.158-1.894-2.212-3.232-2.212-3.232l-48.012-27.385a11.138,11.138,0,0,0-4.8-1.422,12.471,12.471,0,0,0-4.089.978l-52.847,30.308s-2.086,1.186-2.086,2.919,2.652,3.151,2.652,3.151l41.852,26.407s4.647,3.267,8,3.289,6.667-2.4,6.667-2.4L1408.7,1622S1411.067,1620.629,1410.91,1618.736Z" transform="translate(-1296.31 -1586.692)" fill="#f0f0f0" stroke="#707070" stroke-width="1"/>
      </g>
    </g>
    <g id="Group_169" data-name="Group 169" transform="translate(670.602 324.373)">
      <g id="Group_10-4" data-name="Group 10" transform="translate(0 71)">
        <path id="Path_39-4" data-name="Path 39" d="M2087.68,1615.347c.38,2.488-.01,16.54,0,18.425s.77,3.46-3.67,6.407-50.7,28.793-50.7,28.793-7.339,2.555-12.654,0-45.733-28.534-45.733-28.534a5.821,5.821,0,0,1-1.977-4.455c.249-2.557,0-18.342,0-18.342a4.766,4.766,0,0,1,2.361-3.951c2.456-1.55,50.138-28.113,50.138-28.113a14.921,14.921,0,0,1,14.016,0c7.593,3.931,46.43,26.911,46.43,26.911S2087.3,1612.859,2087.68,1615.347Z" transform="translate(-1972.932 -1581.863)" fill="#cbcbcb" stroke="#707070" stroke-width="2"/>
        <path id="Path_40-4" data-name="Path 40" d="M1410.91,1618.736c-.158-1.894-2.212-3.232-2.212-3.232l-48.012-27.385a11.138,11.138,0,0,0-4.8-1.422,12.471,12.471,0,0,0-4.089.978l-52.847,30.308s-2.086,1.186-2.086,2.919,2.652,3.151,2.652,3.151l41.852,26.407s4.647,3.267,8,3.289,6.667-2.4,6.667-2.4L1408.7,1622S1411.067,1620.629,1410.91,1618.736Z" transform="translate(-1296.31 -1586.692)" fill="#f0f0f0" stroke="#707070" stroke-width="1"/>
      </g>
    </g>
    <path id="Path_261" data-name="Path 261" d="M837.989,2252.979s12.22-8.274,14.511-8.656a15.868,15.868,0,0,1,4.582,0s11.71,6.873,11.965,8.656-10.437,8.656-10.437,8.656a4.811,4.811,0,0,1-3.819,0c-2.037-.891-11.2-8.656-11.2-8.656Z" transform="translate(-126.236 -1827.852)" fill="none" stroke="#707070" stroke-width="2"/>
    <g id="Group_156" data-name="Group 156" transform="translate(-1246.685 -996.021)">
      <g id="Group_69" data-name="Group 69" transform="translate(1971.184 1826.15)">
        <g id="Group_10-5" data-name="Group 10">
          <path id="Path_39-5" data-name="Path 39" d="M1972.979,1519.819c-.107.7,0,4.645,0,5.175s-.216.972,1.031,1.8,32.867,19.4,32.867,19.4a5.449,5.449,0,0,0,3.554,0c1.493-.718,12.844-8.014,12.844-8.014a1.635,1.635,0,0,0,.555-1.251c-.07-.718,0-5.151,0-5.151a1.339,1.339,0,0,0-.663-1.11c-.69-.435-32.71-19.211-32.71-19.211a4.191,4.191,0,0,0-3.937,0c-2.132,1.1-13.04,7.558-13.04,7.558S1973.085,1519.12,1972.979,1519.819Z" transform="translate(-1972.932 -1510.704)" fill="#cbcbcb" stroke="#707070" stroke-width="2"/>
          <path id="Path_40-5" data-name="Path 40" d="M1296.865,1522.691a1.436,1.436,0,0,1,.621-.908l13.484-7.691a3.126,3.126,0,0,1,1.348-.4,3.5,3.5,0,0,1,1.149.275l33.477,19.848s.586.333.586.82-.745.885-.745.885l-11.754,7.417a5.255,5.255,0,0,1-2.247.924,3.686,3.686,0,0,1-1.873-.674l-33.425-19.578S1296.821,1523.223,1296.865,1522.691Z" transform="translate(-1296.783 -1513.692)" fill="#f0f0f0" stroke="#707070" stroke-width="1"/>
        </g>
      </g>
      <g id="Group_68" data-name="Group 68" transform="translate(1990.1 1831.27)">
        <g id="Group_10-6" data-name="Group 10">
          <path id="Path_39-6" data-name="Path 39" d="M1973.006,1524.936c-.169,1.1,0,14.682,0,15.517s-.341,1.534,1.626,2.84,35.512,21.05,35.512,21.05,3.253,1.132,5.608,0,20.269-12.646,20.269-12.646a2.579,2.579,0,0,0,.876-1.974c-.11-1.133,0-15.481,0-15.481a2.112,2.112,0,0,0-1.046-1.751c-1.089-.687-35.265-20.749-35.265-20.749a6.613,6.613,0,0,0-6.212,0c-3.365,1.742-20.578,11.927-20.578,11.927S1973.174,1523.833,1973.006,1524.936Z" transform="translate(-1972.932 -1510.552)" fill="#cbcbcb" stroke="#707070" stroke-width="2"/>
          <path id="Path_40-6" data-name="Path 40" d="M1296.867,1527.894a2.266,2.266,0,0,1,.98-1.433l21.279-12.137a4.937,4.937,0,0,1,2.128-.631,5.529,5.529,0,0,1,1.812.434l36.2,21.217s.924.526.924,1.294-1.175,1.4-1.175,1.4l-18.549,11.7a8.294,8.294,0,0,1-3.546,1.458,5.818,5.818,0,0,1-2.955-1.064l-36.117-20.79S1296.8,1528.733,1296.867,1527.894Z" transform="translate(-1296.736 -1513.691)" fill="#f0f0f0" stroke="#707070" stroke-width="1"/>
        </g>
      </g>
    </g>
    <g id="Group_153" data-name="Group 153" transform="translate(-5276.291 -3953.969)">
      <path id="Path_238" data-name="Path 238" d="M6186.757,4681.706l83.568,50.591,79.071-44.97V4580.9l-88.065-49.841-74.574,41.972Z" transform="translate(-86.355 -68.836)" fill="#d7d7d7" stroke="#707070" stroke-width="1"/>
      <path id="Path_239" data-name="Path 239" d="M6241.432,4605.73l76.823-42.72v104.555l-76.823,44.969Z" transform="translate(-54.463 -50.198)" fill="#bbb" stroke="#707070" stroke-width="1"/>
      <path id="Path_240" data-name="Path 240" d="M6188.649,4606.011v28.6l76.449,46.094V4651.73Z" transform="translate(-85.25 -25.117)" fill="#acacac" stroke="#707070" stroke-width="1"/>
      <path id="Path_241" data-name="Path 241" d="M6188.649,4606.011v28.6l76.449,46.094V4651.73Z" transform="translate(-85.25 -56.132)" fill="#acacac" stroke="#707070" stroke-width="1"/>
      <path id="Path_242" data-name="Path 242" d="M6188.649,4606.011v28.6l76.449,46.094V4651.73Z" transform="translate(-85.25 -87.798)" fill="#acacac" stroke="#707070" stroke-width="1"/>
      <g id="Group_150" data-name="Group 150" transform="translate(6112.873 4602.341)">
        <path id="Path_222" data-name="Path 222" d="M6189.5,4615.011h-1.869l48.416,30.689h1.81v-1.771Z" transform="translate(-6187.634 -4615.011)" fill="#606060"/>
        <path id="Path_221" data-name="Path 221" d="M6188.649,4615.011v1.533l48.356,29.156v-1.771Z" transform="translate(-6188.619 -4615.011)" fill="#606060"/>
      </g>
      <g id="Group_151" data-name="Group 151" transform="translate(6112.873 4571.326)">
        <path id="Path_222-2" data-name="Path 222" d="M6189.5,4615.011h-1.869l48.416,30.689h1.81v-1.771Z" transform="translate(-6187.634 -4615.011)" fill="#606060"/>
        <path id="Path_221-2" data-name="Path 221" d="M6188.649,4615.011v1.533l48.356,29.156v-1.771Z" transform="translate(-6188.619 -4615.011)" fill="#606060"/>
      </g>
      <g id="Group_152" data-name="Group 152" transform="translate(6112.873 4539.661)">
        <path id="Path_222-3" data-name="Path 222" d="M6189.5,4615.011h-1.869l48.416,30.689h1.81v-1.771Z" transform="translate(-6187.634 -4615.011)" fill="#606060"/>
        <path id="Path_221-3" data-name="Path 221" d="M6188.649,4615.011v1.533l48.356,29.156v-1.771Z" transform="translate(-6188.619 -4615.011)" fill="#606060"/>
      </g>
    </g>
    <path id="Path_232" data-name="Path 232" d="M5867.761,4548.811l-132,72.4-20-12,126.3-71.656Z" transform="translate(-5151.855 -3810.098)" fill="#cbcbcb" stroke="#707070" stroke-width="1"/>
    <g id="Group_146" data-name="Group 146" transform="translate(540.322 777.317)">
      <path id="Path_227" data-name="Path 227" d="M5812.908,4585.024l-10.888,6.154v6.627l87.339,49.941,9.941-7.337v-4.5Z" transform="translate(-5801.868 -4584.935)" fill="#cbcbcb" stroke="#707070" stroke-width="1"/>
      <path id="Path_228" data-name="Path 228" d="M5801.9,4591.31l87.749,50.546,9.807-6.228-86.522-50.693Z" transform="translate(-5801.896 -4584.935)" fill="#f0f0f0" stroke="#707070" stroke-width="1"/>
    </g>
    <g id="Group_157" data-name="Group 157" transform="translate(194.519 633.193)">
      <g id="Group_21" data-name="Group 21" transform="translate(11.514 6.297)">
        <g id="Group_10-7" data-name="Group 10" transform="translate(0 0)">
          <path id="Path_39-7" data-name="Path 39" d="M1972.993,1595.263c-.138.9,0,6,0,6.683s-.28,1.255,1.331,2.324,18.389,10.444,18.389,10.444,2.662.927,4.59,0,16.589-10.35,16.589-10.35a2.111,2.111,0,0,0,.717-1.616c-.09-.927,0-6.653,0-6.653a1.729,1.729,0,0,0-.856-1.433c-.891-.562-18.187-10.2-18.187-10.2a5.413,5.413,0,0,0-5.084,0c-2.754,1.426-16.842,9.762-16.842,9.762S1973.13,1594.36,1972.993,1595.263Z" transform="translate(-1972.932 -1583.117)" fill="#cbcbcb" stroke="#707070" stroke-width="2"/>
          <path id="Path_40-7" data-name="Path 40" d="M1296.866,1598.315a1.855,1.855,0,0,1,.8-1.173l17.416-9.934a4.041,4.041,0,0,1,1.741-.516,4.525,4.525,0,0,1,1.483.355l19.17,10.994s.756.43.756,1.059-.962,1.143-.962,1.143l-15.182,9.579a6.79,6.79,0,0,1-2.9,1.193,4.762,4.762,0,0,1-2.419-.871l-19.1-10.645S1296.809,1599,1296.866,1598.315Z" transform="translate(-1296.751 -1586.691)" fill="#f0f0f0" stroke="#707070" stroke-width="1"/>
        </g>
      </g>
      <g id="Group_20" data-name="Group 20" transform="translate(0)">
        <g id="Group_10-8" data-name="Group 10">
          <path id="Path_39-8" data-name="Path 39" d="M1973.121,1546.861c-.433,2.833.012,6.243,0,8.389s-.877,3.941,4.179,7.3,133.277,78.673,133.277,78.673,8.358,2.91,14.411,0,52.084-32.5,52.084-32.5,2.534-2.162,2.251-5.074a75.55,75.55,0,0,1,0-8.294,5.429,5.429,0,0,0-2.689-4.5c-2.8-1.765-132.642-77.9-132.642-77.9a16.993,16.993,0,0,0-15.963,0c-8.647,4.476-52.877,30.648-52.877,30.648S1973.554,1544.028,1973.121,1546.861Z" transform="translate(-1972.931 -1509.901)" fill="#cbcbcb" stroke="#707070" stroke-width="2"/>
          <path id="Path_40-8" data-name="Path 40" d="M1296.872,1550.185c.179-2.157,2.519-3.682,2.519-3.682l54.679-31.188s3.038-1.721,5.468-1.62a14.2,14.2,0,0,1,4.657,1.114l135.75,80.485s2.375,1.351,2.375,3.325-3.02,3.588-3.02,3.588l-47.664,30.074s-5.293,3.721-9.113,3.746-7.593-2.734-7.593-2.734L1299.39,1553.9S1296.692,1552.342,1296.872,1550.185Z" transform="translate(-1296.536 -1513.692)" fill="#f0f0f0" stroke="#707070" stroke-width="1"/>
        </g>
      </g>
      <path id="Path_146" data-name="Path 146" d="M905.4,2341.106l79.323,19.347-16.445,8.706,51.27,22.249-82.225-15.477,16.445-15.478Z" transform="translate(-861.158 -2310.355)" fill="#c3c3c3" stroke="#707070" stroke-width="1"/>
    </g>
    <g id="Group_144" data-name="Group 144" transform="translate(660.215 678.085)">
      <path id="Path_227-2" data-name="Path 227" d="M5812.908,4585.024l-10.888,6.154v6.627l87.339,49.941,9.941-7.337v-4.5Z" transform="translate(-5801.868 -4584.935)" fill="#cbcbcb" stroke="#707070" stroke-width="1"/>
      <path id="Path_228-2" data-name="Path 228" d="M5801.9,4591.31l87.749,50.546,9.807-6.228-86.522-50.693Z" transform="translate(-5801.896 -4584.935)" fill="#f0f0f0" stroke="#707070" stroke-width="1"/>
    </g>
    <g id="Group_143" data-name="Group 143" transform="translate(690.678 580.25)">
      <path id="Path_229" data-name="Path 229" d="M5856.989,4469.579l-14.612-9.221-14.154,9.221v140.935l14.154,8.308,14.612-8.308Z" transform="translate(-5828.224 -4460.358)" fill="#f0f0f0" stroke="#707070" stroke-width="1"/>
      <path id="Path_230" data-name="Path 230" d="M5828.146,4477.281l.055,141.354,14.407-8.415V4469.579Z" transform="translate(-5813.763 -4460.358)" fill="#cbcbcb" stroke="#707070" stroke-width="1"/>
    </g>
    <g id="Group_142" data-name="Group 142" transform="translate(-2298.084 -1638.232)">
      <g id="Group_45" data-name="Group 45">
        <g id="Group_44" data-name="Group 44" transform="translate(-655.153 766.691)">
          <g id="Group_33" data-name="Group 33" transform="translate(2613.086 826.203)">
            <g id="Group_10-9" data-name="Group 10" transform="translate(-1219.305 203.836)">
              <path id="Path_39-9" data-name="Path 39" d="M1973.233,1567.968c-.688,4.5.019,9.914,0,13.322s-1.392,6.258,6.636,11.588,211.649,124.936,211.649,124.936,13.273,4.621,22.885,0,82.711-51.6,82.711-51.6,4.024-3.433,3.575-8.057a119.91,119.91,0,0,1,0-13.172,8.62,8.62,0,0,0-4.27-7.146c-4.441-2.8-210.64-123.707-210.64-123.707a26.987,26.987,0,0,0-25.35,0c-13.731,7.109-83.972,48.671-83.972,48.671S1973.921,1563.468,1973.233,1567.968Z" transform="translate(82.842 -1094.984)" fill="#cbcbcb" stroke="#707070" stroke-width="2"/>
              <path id="Path_40-9" data-name="Path 40" d="M1296.877,1571.645c.285-3.425,4-5.846,4-5.846l86.832-49.528s4.824-2.734,8.683-2.573a22.56,22.56,0,0,1,7.4,1.769l215.576,127.814s3.772,2.145,3.772,5.28-4.8,5.7-4.8,5.7l-75.692,47.759s-8.4,5.909-14.471,5.949-12.059-4.341-12.059-4.341l-215.241-126.076S1296.592,1575.07,1296.877,1571.645Z" transform="translate(759.43 -1099.402)" fill="#f0f0f0" stroke="#707070" stroke-width="1"/>
              <path id="Path_170" data-name="Path 170" d="M1291.876,1565.153c.263-3.16,3.69-5.393,3.69-5.393l80.1-45.689s4.45-2.522,8.01-2.373a20.808,20.808,0,0,1,6.823,1.632l207.867,123.908s3.479,1.978,3.479,4.871-4.424,5.256-4.424,5.256l-69.825,44.057s-7.753,5.451-13.35,5.488-11.124-4-11.124-4l-207.558-122.3S1291.613,1568.313,1291.876,1565.153Z" transform="translate(773.074 -1092.873)" stroke="#707070" stroke-width="1"/>
            </g>
          </g>
          <path id="Path_162" data-name="Path 162" d="M4223.759,680.379l14.55-9.7s2.119.044,2.548,1.042-.836,2.952-.836,2.952l-14.265,9.129s-1.983-.069-2.482-.925S4223.759,680.379,4223.759,680.379Z" transform="translate(-496.297 939.669)" opacity="0.66"/>
        </g>
      </g>
      <g id="Group_47" data-name="Group 47" transform="translate(2822.157 2296.53)">
        <g id="Group_10-10" data-name="Group 10">
          <path id="Path_39-10" data-name="Path 39" d="M1972.945,1513.475c-.03.2,0,3.955,0,4.105s-.061.275.292.51,9.31,5.5,9.31,5.5a1.543,1.543,0,0,0,1.007,0c.423-.2,3.638-2.27,3.638-2.27a.462.462,0,0,0,.157-.354c-.02-.2,0-4.1,0-4.1a.379.379,0,0,0-.188-.314c-.2-.123-9.266-5.442-9.266-5.442a1.187,1.187,0,0,0-1.115,0c-.6.313-3.694,2.141-3.694,2.141S1972.975,1513.277,1972.945,1513.475Z" transform="translate(-1972.932 -1510.893)" fill="#cbcbcb" stroke="#707070" stroke-width="2"/>
          <path id="Path_40-10" data-name="Path 40" d="M1296.864,1516.241a.407.407,0,0,1,.176-.257l3.82-2.179a.886.886,0,0,1,.382-.113.992.992,0,0,1,.325.078l9.483,5.622s.166.094.166.232-.211.251-.211.251l-3.33,2.1a1.488,1.488,0,0,1-.637.262,1.044,1.044,0,0,1-.53-.191l-9.468-5.546S1296.851,1516.392,1296.864,1516.241Z" transform="translate(-1296.84 -1513.692)" fill="#f0f0f0" stroke="#707070" stroke-width="1"/>
        </g>
      </g>
    </g>
    <g id="Group_190" data-name="Group 190" transform="translate(-5271.426 -3956.071)" opacity="0.61">
      <path id="Path_254" data-name="Path 254" d="M1565.825,977.547V966.684l-10.876-6.231-10.06,5.781v11.313l10.351,6.006Z" transform="translate(4370.969 3660.881)" fill="#9a6d22" stroke="#fff" stroke-width="2"/>
      <path id="Path_255" data-name="Path 255" d="M1581.978,990.734V971.491l-19.268-11.038-17.821,10.24v20.041l18.337,10.639Z" transform="translate(4396.297 3607.944)" fill="#9a6d22" stroke="#fff" stroke-width="2"/>
      <path id="Path_256" data-name="Path 256" d="M1568.813,979.986V967.573l-12.429-7.12-11.5,6.606v12.927l11.828,6.863Z" transform="translate(4255.284 3604)" fill="#9a6d22" stroke="#fff" stroke-width="2"/>
      <path id="Path_257" data-name="Path 257" d="M1544.889,990.443V981.2l36.307-20.747,17.821,10.24v10.041l-35.376,20.348Z" transform="translate(4316.841 3628.404)" fill="#9a6d22" stroke="#fff" stroke-width="2"/>
      <path id="Path_258" data-name="Path 258" d="M1574.483,925.875V849.261l-15.374-8.808-14.22,8.171v77.251l14.631,8.49Z" transform="translate(4489.297 3736.71)" fill="#9a6d22" stroke="#fff" stroke-width="2"/>
      <path id="Path_259" data-name="Path 259" d="M1599.017,1000.443V981.2l-36.307-20.747-17.821,10.24v20.041l35.376,20.348Z" transform="translate(4327.75 3572.709)" fill="#9a6d22" stroke="#fff" stroke-width="2"/>
      <path id="Path_260" data-name="Path 260" d="M1581.978,990.734V971.491l-19.268-11.038-17.821,10.24v20.041l18.337,10.639Z" transform="translate(4288.065 3596.104)" fill="#9a6d22" stroke="#fff" stroke-width="2"/>
      <g id="Group_188" data-name="Group 188" transform="translate(5331.798 2010.124)">
        <g id="Group_40" data-name="Group 40">
          <path id="Path_167" data-name="Path 167" d="M712.4,2283v4.226l-5.221,4.724V2297h4.061v5.138l4.807,2.817,4.144-1.492,3.315.994,1.575,3.066h6.05l2.983-4.061h2.818l4.641.994,4.144-2.9V2297h3.232v-5.718l-3.232-3.4v-6.132Z" transform="translate(-79 318.973)" fill="#9a6d22" stroke="#fff" stroke-width="1"/>
          <path id="Path_166" data-name="Path 166" d="M724.312,2298.926l1.821,3.641h5.33l2.237-3.641,2.983-.928,4.889.928,3.563-2.42-1.906-3.315,1.243-.994H749.2l-.5-3.729-4.226-.912-1.243-2.155,1.906-3.4-4.475-2.32-3.978,2.32-2.983-.746-1.74-4.309h-7.648l-.8,3.4-1.906.911-5.8-.911-3.729,2.735,1.989,2.32-1.989,2.155h-5.138v4.641h5.138l1.492,1.657-2.072,3.315,4.807,2.818,4.144-1.989Z" transform="translate(-79 318.973)" fill="#9a6d22" stroke="#fff" stroke-width="1"/>
        </g>
        <g id="Ellipse_9" data-name="Ellipse 9" transform="translate(644 2606)" fill="#9a6d22" stroke="#fff" stroke-width="1">
          <ellipse cx="5" cy="3" rx="5" ry="3" stroke="none"/>
          <ellipse cx="5" cy="3" rx="4.5" ry="2.5" fill="none"/>
        </g>
      </g>
      <g id="Group_189" data-name="Group 189" transform="translate(5331.798 2033.566)">
        <g id="Group_40-2" data-name="Group 40" transform="translate(627.933 2595.92)">
          <path id="Path_167-2" data-name="Path 167" d="M715.027,2287.861v7.161l-7.846,4v8.565h6.88v8.706l8.144,4.773,7.021-2.527,5.617,1.685,2.668,5.2h10.25l5.055-6.88h4.774l7.863,1.685,7.021-4.914v-7.722h5.476V2297.9l-6.476-1.757v-10.39Z" transform="translate(-706.76 -2276.61)" fill="#9a6d22" stroke="#fff" stroke-width="1"/>
          <path id="Path_166-2" data-name="Path 166" d="M736.379,2314.186l3.085,6.17H748.5l3.791-6.17,5.055-1.573,8.284,1.573,6.038-4.1-3.23-5.617,2.106-1.685h8l-.843-6.319-7.161-1.544-2.106-3.651,3.23-5.757-7.582-3.931-6.74,3.931-5.055-1.264-2.949-7.3H736.379l-1.363,5.757-3.229,1.544-9.829-1.544-6.319,4.634,3.37,3.931-3.37,3.651h-8.706v7.863h8.706l2.527,2.808-3.51,5.616,8.144,4.774,7.021-3.37Z" transform="translate(-706.933 -2276.948)" fill="#9a6d22" stroke="#fff" stroke-width="1"/>
        </g>
        <g id="Ellipse_9-2" data-name="Ellipse 9" transform="translate(657.387 2614.337)" fill="#9a6d22" stroke="#fff" stroke-width="1">
          <ellipse cx="6.241" cy="3.745" rx="6.241" ry="3.745" stroke="none"/>
          <ellipse cx="6.241" cy="3.745" rx="5.741" ry="3.245" fill="none"/>
        </g>
      </g>
    </g>
    <g id="Group_145" data-name="Group 145" transform="translate(-1353.785 -2535.512)">
      <path id="Path_225" data-name="Path 225" d="M5856.989,4469.579l-14.612-9.221-14.154,9.221v140.935l14.154,8.308,14.612-8.308Z" transform="translate(-3899.761 -1274.586)" fill="#f0f0f0" stroke="#707070" stroke-width="1"/>
      <path id="Path_226" data-name="Path 226" d="M5828.146,4477.281l.055,141.354,14.407-8.415V4469.579Z" transform="translate(-3885.3 -1274.586)" fill="#cbcbcb" stroke="#707070" stroke-width="1"/>
    </g>
    <g id="Group_5" data-name="Group 5" transform="translate(845.823 469.429)">
      <path id="Path_33" data-name="Path 33" d="M1442.921,249.684l-61.688-35.819-14.782,55.149,61.4,37.809Z" transform="translate(-1322.956 -213.865)" fill="#fff" stroke="#707070" stroke-width="1"/>
      <path id="Path_34" data-name="Path 34" d="M1441.873,253.136l-58.845-33.829L1370.8,267.065,1428.8,300.61Z" transform="translate(-1324.183 -216.464)" fill="#161616" stroke="#707070" stroke-width="2"/>
      <path id="Path_35" data-name="Path 35" d="M1500.45,353.859l-59.982-34.966-44.631,24.732v3.411l60.835,35.819L1500.45,356.7Z" transform="translate(-1395.836 -264.028)" fill="#fff" stroke="#707070" stroke-width="2"/>
      <path id="Path_36" data-name="Path 36" d="M1462.016,369.819l-58.561-34.113,20.468-11.371,58.845,34.682Z" transform="translate(-1382.134 -266.627)" stroke="#707070" stroke-width="1" opacity="0.91"/>
      <path id="Path_37" data-name="Path 37" d="M1523.42,380.118l-21.08-12.792L1485,375.854l22.742,13.077Z" transform="translate(-1465.385 -287.16)" fill="#161616" stroke="#707070" stroke-width="1"/>
    </g>
    <g id="Group_158" data-name="Group 158" transform="translate(-152.747 -2024.788)">
      <g id="Group_40-3" data-name="Group 40">
        <path id="Path_167-3" data-name="Path 167" d="M712.4,2283v4.226l-5.221,4.724V2297h4.061v5.138l4.807,2.817,4.144-1.492,3.315.994,1.575,3.066h6.05l2.983-4.061h2.818l4.641.994,4.144-2.9V2297h3.232v-5.718l-3.232-3.4v-6.132Z" transform="translate(-79 318.973)" fill="#cbcbcb" stroke="#707070" stroke-width="1"/>
        <path id="Path_166-3" data-name="Path 166" d="M724.312,2298.926l1.821,3.641h5.33l2.237-3.641,2.983-.928,4.889.928,3.563-2.42-1.906-3.315,1.243-.994H749.2l-.5-3.729-4.226-.912-1.243-2.155,1.906-3.4-4.475-2.32-3.978,2.32-2.983-.746-1.74-4.309h-7.648l-.8,3.4-1.906.911-5.8-.911-3.729,2.735,1.989,2.32-1.989,2.155h-5.138v4.641h5.138l1.492,1.657-2.072,3.315,4.807,2.818,4.144-1.989Z" transform="translate(-79 318.973)" fill="#fff" stroke="#707070" stroke-width="1"/>
      </g>
      <g id="Ellipse_9-3" data-name="Ellipse 9" transform="translate(644 2606)" fill="#cbcbcb" stroke="#707070" stroke-width="1">
        <ellipse cx="5" cy="3" rx="5" ry="3" stroke="none"/>
        <ellipse cx="5" cy="3" rx="4.5" ry="2.5" fill="none"/>
      </g>
    </g>
    <g id="Group_159" data-name="Group 159" transform="translate(-240.916 -2024.788)">
      <g id="Group_40-4" data-name="Group 40" transform="translate(627.933 2595.92)">
        <path id="Path_167-4" data-name="Path 167" d="M715.027,2287.861v7.161l-7.846,4v8.565h6.88v8.706l8.144,4.773,7.021-2.527,5.617,1.685,2.668,5.2h10.25l5.055-6.88h4.774l7.863,1.685,7.021-4.914v-7.722h5.476V2297.9l-6.476-1.757v-10.39Z" transform="translate(-706.76 -2276.61)" fill="#cbcbcb" stroke="#707070" stroke-width="1"/>
        <path id="Path_166-4" data-name="Path 166" d="M736.379,2314.186l3.085,6.17H748.5l3.791-6.17,5.055-1.573,8.284,1.573,6.038-4.1-3.23-5.617,2.106-1.685h8l-.843-6.319-7.161-1.544-2.106-3.651,3.23-5.757-7.582-3.931-6.74,3.931-5.055-1.264-2.949-7.3H736.379l-1.363,5.757-3.229,1.544-9.829-1.544-6.319,4.634,3.37,3.931-3.37,3.651h-8.706v7.863h8.706l2.527,2.808-3.51,5.616,8.144,4.774,7.021-3.37Z" transform="translate(-706.933 -2276.948)" fill="#fff" stroke="#707070" stroke-width="1"/>
      </g>
      <g id="Ellipse_9-4" data-name="Ellipse 9" transform="translate(657.387 2614.337)" fill="#cbcbcb" stroke="#707070" stroke-width="1">
        <ellipse cx="6.241" cy="3.745" rx="6.241" ry="3.745" stroke="none"/>
        <ellipse cx="6.241" cy="3.745" rx="5.741" ry="3.245" fill="none"/>
      </g>
    </g>
    <g id="Group_201" data-name="Group 201" transform="translate(276.828 -1572.127)">
      <path id="Path_246" data-name="Path 246" d="M748.328,2452.4c-2.309.385-21.7,8.387-21.7,8.387l-1.752,2.774v2.212l23.45,13.182s4.618.77,3.849,0,21.937-10.392,21.937-10.392l1.3-2.791-1.3-2.212L755.255,2452.4Z" transform="translate(41.649 138.376)" fill="#cbcbcb" stroke="#707070" stroke-width="2"/>
      <path id="Path_252" data-name="Path 252" d="M730.779,2469.814c0-4.234,12.7-31.943,12.7-31.943s4.618-5,8.082,0,10.776,31.943,10.776,31.943-3.079,11.545-15.009,11.545S730.779,2474.049,730.779,2469.814Z" transform="translate(44.761 127.889)" fill="#f3ae7f" stroke="#707070" stroke-width="2"/>
      <path id="Exclusion_1" data-name="Exclusion 1" d="M15.128,35.957C5.333,35.957,1.286,31.05,0,28.94c.645-1.818,1.519-4.084,2.6-6.738,2.134,1.823,6.039,4,12.531,4a15.1,15.1,0,0,0,7.378-1.8,14.816,14.816,0,0,0,3.906-3.136c.669,2.2,1.357,4.529,2.049,6.936A14.878,14.878,0,0,1,15.128,35.957Zm.11-21.139A21.737,21.737,0,0,1,6.42,13.146C8.6,8.133,10.519,3.894,11.244,2.3l.037-.081C11.3,2.2,13.4,0,15.727,0a4.419,4.419,0,0,1,3.635,2.223c1,1.446,2.424,4.879,4.231,10.2A14.874,14.874,0,0,1,15.238,14.818Z" transform="translate(777.088 2563.536)" fill="#f0f0f0" stroke="#707070" stroke-width="1"/>
    </g>
    <g id="Group_204" data-name="Group 204" transform="translate(236.749 170.83)">
      <g id="Group_203" data-name="Group 203" transform="translate(304.605 681.651)">
        <g id="Group_10-11" data-name="Group 10" transform="translate(0 0)">
          <path id="Path_39-11" data-name="Path 39" d="M2069.316,1610.3c.319,2.09-.009,13.893,0,15.476s.646,2.906-3.083,5.382-42.583,24.185-42.583,24.185-6.165,2.146-10.629,0-38.414-23.968-38.414-23.968a4.888,4.888,0,0,1-1.66-3.742c.209-2.148,0-15.406,0-15.406a4,4,0,0,1,1.983-3.319c2.063-1.3,42.114-23.614,42.114-23.614a12.533,12.533,0,0,1,11.773,0c6.378,3.3,39,22.6,39,22.6S2069,1608.214,2069.316,1610.3Z" transform="translate(-1972.932 -1582.178)" fill="#cbcbcb" stroke="#707070" stroke-width="2"/>
          <path id="Path_40-11" data-name="Path 40" d="M1392.658,1613.608a4.294,4.294,0,0,0-1.858-2.715l-40.328-23a9.354,9.354,0,0,0-4.033-1.195,10.475,10.475,0,0,0-3.435.821l-44.389,25.458s-1.752,1-1.752,2.452,2.227,2.646,2.227,2.646l35.155,22.181s3.9,2.744,6.721,2.763a11.026,11.026,0,0,0,5.6-2.016l44.234-24.651S1392.791,1615.2,1392.658,1613.608Z" transform="translate(-1296.399 -1586.692)" fill="#f0f0f0" stroke="#707070" stroke-width="1"/>
        </g>
      </g>
      <path id="Path_264" data-name="Path 264" d="M876,2232.918l14.353-7.758,3.491,10.474Z" transform="translate(-533.503 -1525.66)" fill="none" stroke="#707070" stroke-width="2"/>
    </g>
    <path id="Path_265" data-name="Path 265" d="M11684.04,945.7s135.152,115.845,216.838,40.1-53.467-148.52,0-197.531,106.935,11.882,106.935,11.882" transform="translate(-10882 -70)" fill="none" stroke="#707070" stroke-width="3" opacity="0.4"/>
    <g id="Group_155" data-name="Group 155" transform="translate(-1064.992 -1529.345)">
      <g id="Group_65" data-name="Group 65" transform="translate(2158.878 2202.423)">
        <g id="Group_10-12" data-name="Group 10" transform="translate(0 0)">
          <path id="Path_39-12" data-name="Path 39" d="M2082.423,1613.9c.363,2.374-.01,44.408,0,46.206s.734,3.3-3.5,6.114-48.373,27.474-48.373,27.474-7,2.438-12.074,0-43.638-27.226-43.638-27.226a5.554,5.554,0,0,1-1.886-4.251c.237-2.44,0-46.127,0-46.127a4.548,4.548,0,0,1,2.253-3.77c2.343-1.479,47.841-26.825,47.841-26.825a14.238,14.238,0,0,1,13.374,0c7.245,3.751,44.3,25.678,44.3,25.678S2082.06,1611.529,2082.423,1613.9Z" transform="translate(-1972.932 -1581.953)" fill="#cbcbcb" stroke="#707070" stroke-width="2"/>
          <path id="Path_40-12" data-name="Path 40" d="M1405.685,1617.267c-.15-1.807-2.111-3.084-2.111-3.084l-45.812-26.131a10.631,10.631,0,0,0-4.581-1.357,11.9,11.9,0,0,0-3.9.933l-50.426,28.92s-1.99,1.131-1.99,2.786,2.53,3.006,2.53,3.006l39.935,25.2s4.435,3.117,7.635,3.139,6.362-2.29,6.362-2.29l50.249-28S1405.835,1619.074,1405.685,1617.267Z" transform="translate(-1296.335 -1586.692)" fill="#f0f0f0" stroke="#707070" stroke-width="1"/>
        </g>
      </g>
      <g id="Group_66" data-name="Group 66" transform="translate(2245.444 2258.837)">
        <g id="Group_10-13" data-name="Group 10">
          <path id="Path_39-13" data-name="Path 39" d="M1972.963,1516.8c-.07.461,0,9.2,0,9.551s-.142.641.679,1.186,21.662,12.787,21.662,12.787a3.591,3.591,0,0,0,2.342,0c.984-.473,8.465-5.282,8.465-5.282a1.078,1.078,0,0,0,.366-.824c-.046-.474,0-9.536,0-9.536a.882.882,0,0,0-.437-.731c-.455-.287-21.558-12.661-21.558-12.661a2.762,2.762,0,0,0-2.594,0c-1.406.728-8.594,4.981-8.594,4.981S1973.033,1516.341,1972.963,1516.8Z" transform="translate(-1972.932 -1510.794)" fill="#cbcbcb" stroke="#707070" stroke-width="2"/>
          <path id="Path_40-13" data-name="Path 40" d="M1296.865,1519.623a.946.946,0,0,1,.409-.6l8.887-5.069a2.06,2.06,0,0,1,.889-.264,2.311,2.311,0,0,1,.757.181l22.064,13.082s.386.219.386.54-.491.583-.491.583l-7.747,4.888a3.463,3.463,0,0,1-1.481.609,2.43,2.43,0,0,1-1.234-.444l-22.029-12.9S1296.835,1519.974,1296.865,1519.623Z" transform="translate(-1296.81 -1513.692)" fill="#f0f0f0" stroke="#707070" stroke-width="1"/>
        </g>
      </g>
      <g id="Group_67" data-name="Group 67" transform="translate(2225.577 2273.155)">
        <g id="Group_10-14" data-name="Group 10">
          <path id="Path_39-14" data-name="Path 39" d="M1972.963,1516.8c-.07.461,0,9.2,0,9.551s-.142.641.679,1.186,21.662,12.787,21.662,12.787a3.591,3.591,0,0,0,2.342,0c.984-.473,8.465-5.282,8.465-5.282a1.078,1.078,0,0,0,.366-.824c-.046-.474,0-9.536,0-9.536a.882.882,0,0,0-.437-.731c-.455-.287-21.558-12.661-21.558-12.661a2.762,2.762,0,0,0-2.594,0c-1.406.728-8.594,4.981-8.594,4.981S1973.033,1516.341,1972.963,1516.8Z" transform="translate(-1972.932 -1510.794)" fill="#cbcbcb" stroke="#707070" stroke-width="2"/>
          <path id="Path_40-14" data-name="Path 40" d="M1296.865,1519.623a.946.946,0,0,1,.409-.6l8.887-5.069a2.06,2.06,0,0,1,.889-.264,2.311,2.311,0,0,1,.757.181l22.064,13.082s.386.219.386.54-.491.583-.491.583l-7.747,4.888a3.463,3.463,0,0,1-1.481.609,2.43,2.43,0,0,1-1.234-.444l-22.029-12.9S1296.835,1519.974,1296.865,1519.623Z" transform="translate(-1296.81 -1513.692)" fill="#f0f0f0" stroke="#707070" stroke-width="1"/>
        </g>
      </g>
    </g>
  </g>
</svg>
