<svg xmlns="http://www.w3.org/2000/svg" width="29.37" height="29.37" viewBox="0 0 29.37 29.37">
  <defs>
    <style>
      .cls-1 {
        fill: #fff;
      }
    </style>
  </defs>
  <path id="Icon_material-sharp-design-services" data-name="Icon material-sharp-design-services" class="cls-1" d="M32.685,25.59,24.36,17.265l2.355-2.355L21.09,9.285,18.735,11.64,10.41,3.315l-7.095,7.1,8.325,8.325L4.5,25.875V31.5h5.625l7.14-7.14,8.325,8.325,7.1-7.095ZM13.77,16.6,7.56,10.41l2.85-2.85,1.9,1.905L10.53,11.25l2.115,2.115L14.43,11.58,16.6,13.755,13.77,16.6ZM19.4,22.23l2.85-2.85,2.175,2.175L22.635,23.34l2.115,2.115,1.785-1.785,1.905,1.905-2.85,2.85ZM22.7,7.684l3.807-3.809L32.129,9.5l-3.807,3.809Z" transform="translate(-3.315 -3.315)"/>
</svg>
