<svg xmlns="http://www.w3.org/2000/svg" width="26.243" height="27" viewBox="0 0 26.243 27">
  <defs>
    <style>
      .cls-1 {
        fill: #fff;
      }
    </style>
  </defs>
  <path id="Icon_material-draw" data-name="Icon material-draw" class="cls-1" d="M28.275,15.585l1.59-1.59a3.006,3.006,0,0,0,0-4.245L27.75,7.635a3.006,3.006,0,0,0-4.245,0l-1.59,1.59,6.36,6.36Zm-8.49-4.245L6,25.14V31.5h6.36L26.145,17.715ZM28.5,26.25c0,3.285-3.81,5.25-7.5,5.25a1.5,1.5,0,0,1,0-3c2.31,0,4.5-1.095,4.5-2.25,0-.7-.72-1.305-1.845-1.8l2.22-2.22A4.562,4.562,0,0,1,28.5,26.25ZM6.87,20.025A4,4,0,0,1,4.5,16.5c0-2.7,2.835-3.945,5.34-5.04C11.385,10.77,13.5,9.84,13.5,9c0-.615-1.17-1.5-3-1.5a3.648,3.648,0,0,0-2.745.96,1.522,1.522,0,0,1-2.1.18A1.488,1.488,0,0,1,5.43,6.57,6.377,6.377,0,0,1,10.5,4.5c3.36,0,6,1.98,6,4.5,0,2.805-2.9,4.08-5.46,5.2C9.63,14.82,7.5,15.75,7.5,16.5c0,.465.645.9,1.6,1.29L6.87,20.025Z" transform="translate(-4.5 -4.5)"/>
</svg>
