<svg xmlns="http://www.w3.org/2000/svg" width="27" height="30" viewBox="0 0 27 30">
  <defs>
    <style>
      .cls-1 {
        fill: #fff;
      }
    </style>
  </defs>
  <path id="Icon_material-assignment-ind" data-name="Icon material-assignment-ind" class="cls-1" d="M28.5,4.5H22.23a4.482,4.482,0,0,0-8.46,0H7.5a3.009,3.009,0,0,0-3,3v21a3.009,3.009,0,0,0,3,3h21a3.009,3.009,0,0,0,3-3V7.5A3.009,3.009,0,0,0,28.5,4.5ZM18,4.5A1.5,1.5,0,1,1,16.5,6,1.5,1.5,0,0,1,18,4.5Zm0,6A4.5,4.5,0,1,1,13.5,15,4.494,4.494,0,0,1,18,10.5Zm9,18H9V26.4c0-3,6-4.65,9-4.65s9,1.65,9,4.65Z" transform="translate(-4.5 -1.5)"/>
</svg>
